<?xml version="1.0" encoding="UTF-8" standalone="no"?>
<svg
   viewBox="0 0 740 510"
   overflow="hidden"
   version="1.1"
   id="svg187"
   sodipodi:docname="machinery.svg"
   inkscape:version="1.3.2 (091e20e, 2023-11-25, custom)"
   xmlns:inkscape="http://www.inkscape.org/namespaces/inkscape"
   xmlns:sodipodi="http://sodipodi.sourceforge.net/DTD/sodipodi-0.dtd"
   xmlns="http://www.w3.org/2000/svg"
   xmlns:svg="http://www.w3.org/2000/svg">
  <sodipodi:namedview
     id="namedview189"
     pagecolor="#ffffff"
     bordercolor="#666666"
     borderopacity="1.0"
     inkscape:pageshadow="2"
     inkscape:pageopacity="0.0"
     inkscape:pagecheckerboard="0"
     showgrid="false"
     inkscape:zoom="1.081448"
     inkscape:cx="1436.5"
     inkscape:cy="451.70919"
     inkscape:window-width="5120"
     inkscape:window-height="2066"
     inkscape:window-x="-11"
     inkscape:window-y="-11"
     inkscape:window-maximized="1"
     inkscape:current-layer="g271"
     inkscape:showpageshadow="2"
     inkscape:deskcolor="#d1d1d1" />
  <defs
     id="defs103">
    <clipPath
       id="clip0">
      <rect
         x="535"
         y="401"
         width="2873"
         height="904"
         id="rect100" />
    </clipPath>
  </defs>
  <g
     clip-path="url(#clip0)"
     transform="matrix(0.50727592,0,0,0.50722279,-255.05036,-180.00854)"
     id="g271">
    <rect
       x="537.5"
       y="410.5"
       width="1378"
       height="892"
       stroke="#7f7f7f"
       stroke-width="4.58333"
       stroke-miterlimit="8"
       fill="#bfbfbf"
       id="rect105" />
    <text
       font-family="Calibri, Calibri_MSFontService, sans-serif"
       font-weight="400"
       font-size="83px"
       transform="translate(865.54,505)"
       id="text107">Machinery Item State</text>
    <rect
       x="649.5"
       y="703.5"
       width="516"
       height="130"
       stroke="#7f7f7f"
       stroke-width="4.58333"
       stroke-miterlimit="8"
       fill="#ffffff"
       id="Executing" />
    <text
       font-family="Arial, Arial_MSFontService, sans-serif"
       font-weight="400"
       font-size="55px"
       transform="translate(786.789,788)"
       id="text111">Executing</text>
    <path
       d="M 1.14587,22.9166 1.14615,176.366 H -1.14551 L -1.14579,22.9166 Z M -13.75,27.5 0,0 13.75,27.5 Z M 13.7503,171.783 3.60892e-4,199.283 -13.7497,171.783 Z"
       transform="matrix(1,0,0,-1,907,1032.28)"
       id="path113" />
    <path
       d="M 22.9426,-0.355026 104.322,2.45245 104.243,4.74276 22.8636,1.93528 Z M 27.0096,14.69 0,0 27.9577,-12.7937 Z M 100.176,-10.3022 127.185,4.38773 99.2276,17.1814 Z"
       transform="matrix(1,0,0,-1,1165,768.388)"
       id="path115" />
    <rect
       x="1293.5"
       y="699.5"
       width="516"
       height="130"
       stroke="#7f7f7f"
       stroke-width="4.58333"
       stroke-miterlimit="8"
       fill="#ffffff"
       id="NotExecuting" />
    <text
       font-family="Arial, Arial_MSFontService, sans-serif"
       font-weight="400"
       font-size="55px"
       transform="translate(1387.81,784)"
       id="text119">NotExecuting</text>
    <rect
       x="649.5"
       y="1032.5"
       width="516"
       height="130"
       stroke="#7f7f7f"
       stroke-width="4.58333"
       stroke-miterlimit="8"
       fill="#ffffff"
       id="NotAvailable" />
    <text
       font-family="Arial, Arial_MSFontService, sans-serif"
       font-weight="400"
       font-size="55px"
       transform="translate(754.052,1117)"
       id="text123">NotAvailable</text>
    <rect
       x="1293.5"
       y="1032.5"
       width="516"
       height="130"
       stroke="#7f7f7f"
       stroke-width="4.58333"
       stroke-miterlimit="8"
       fill="#ffffff"
       id="OutOfService" />
    <text
       font-family="Arial, Arial_MSFontService, sans-serif"
       font-weight="400"
       font-size="55px"
       transform="translate(1385.81,1117)"
       id="text127">OutOfService</text>
    <path
       d="m 1551.27,1007.77 -1.23,-155.845 2.29,-0.018 1.23,155.843 z m 14.86,-4.7 -13.54,27.61 -13.96,-27.39 z M 1537.47,856.608 1551,829 l 13.97,27.391 z"
       id="path129" />
    <path
       d="m 22.9195,-1.08763 81.3525,0.2066 -0.006,2.29166 -81.3523,-0.2066 z M 27.465,13.8198 0,0 27.5348,-13.6801 Z M 99.7203,-13.4968 127.185,0.322999 99.6505,14.0031 Z"
       transform="matrix(1,0,0,-1,1165,1097.32)"
       id="path131" />
    <path
       d="M 13.1878,18.7766 114.343,179.284 112.404,180.506 11.249,19.9985 Z M 3.02955,30.5963 0,0 26.2948,15.9341 Z M 122.562,168.687 l 3.03,30.596 -26.2951,-15.934 z"
       transform="matrix(1,0,0,-1,1165,1030.28)"
       id="path133" />
    <path
       d="m 1178.2,851.767 101.13,160.203 -1.94,1.22 -101.13,-160.2 z M 1168.05,863.594 1165,833 l 26.31,15.915 z m 119.49,137.776 3.05,30.59 -26.3,-15.92 z"
       id="path135" />
    <path
       d="m 1809.26,766.874 h 46.63 l -1.14,1.145 V 616.5 l 1.14,1.146 H 1551 l 1.15,-1.146 v 59.583 h -2.3 v -60.729 h 307.19 v 153.811 h -47.78 z M 1564.75,671.5 1551,699 1537.25,671.5 Z"
       id="path137" />
    <path
       d="M 0,1.14583 H -55.397 L -54.2511,0 v 147.461 l -1.1459,-1.146 h 313.658 l -1.146,1.146 V 87.8773 h 2.292 V 148.606 H -56.5428 V -1.14583 H 0 Z m 244.511,91.31477 13.75,-27.5 13.75,27.5 z"
       transform="matrix(1,0,0,-1,649,767.961)"
       id="path139" />
    <path
       d="M -22.9167,1.14583 H -82.5 L -81.3542,0 V 310.468 L -82.5,309.322 H 64.9606 l -1.1458,1.146 v -52.207 h 2.2917 v 53.353 H -83.6458 V -1.14583 h 60.7291 z M -27.5,-13.75 0,0 -27.5,13.75 Z"
       transform="matrix(0,-1,-1,0,907.261,1161.96)"
       id="path141" />
    <path
       d="m 1552.15,1185.21 v 59.58 l -1.15,-1.15 h 304.89 l -1.15,1.15 V 1097 l 1.15,1.15 h -46.63 v -2.3 h 47.78 v 150.09 h -307.19 v -60.73 z m -14.9,4.58 13.75,-27.5 13.75,27.5 z"
       id="path143" />
  </g>
</svg>
